<svg xmlns="http://www.w3.org/2000/svg" data-name="Layer 1" viewBox="0 0 100 125" x="0px" y="0px"><defs><style>.cls-1{fill-rule:evenodd;}</style></defs><title>a</title><path class="cls-1" d="M87.093,83.369l2.2-2.2-1.312-1.312,0,0a1.362,1.362,0,0,1-.2-1.671,11,11,0,0,0,.751-1.46c.008-.023.016-.045.026-.067a11,11,0,0,0,.5-1.523,1.365,1.365,0,0,1,1.347-1.147h1.855V70.864H90.418v0A1.359,1.359,0,0,1,89.1,69.82a11.07,11.07,0,0,0-.5-1.562c-.01-.021-.02-.042-.029-.063a10.918,10.918,0,0,0-.729-1.45,1.365,1.365,0,0,1,.15-1.75L89.3,63.683l-2.2-2.2-1.138,1.138-.016.016-.158.158,0,0a1.36,1.36,0,0,1-1.67.2,10.918,10.918,0,0,0-1.523-.777,11.056,11.056,0,0,0-1.527-.505,1.364,1.364,0,0,1-1.147-1.347V58.5H76.794v1.855h0a1.358,1.358,0,0,1-1.039,1.321,11.025,11.025,0,0,0-1.631.532,10.853,10.853,0,0,0-1.444.729,1.366,1.366,0,0,1-1.751-.15l-1.312-1.312-2.2,2.2L68.719,65l0,0a1.359,1.359,0,0,1,.2,1.67,11.01,11.01,0,0,0-.75,1.461c-.008.023-.017.045-.026.067a10.992,10.992,0,0,0-.506,1.522,1.364,1.364,0,0,1-1.346,1.147H64.433v3.118h1.855v0a1.36,1.36,0,0,1,1.321,1.039,10.918,10.918,0,0,0,1.26,3.075,1.364,1.364,0,0,1-.15,1.751l-1.312,1.312,2.2,2.2,1.312-1.312,0,0a1.359,1.359,0,0,1,1.67-.2,10.99,10.99,0,0,0,3.049,1.282,1.363,1.363,0,0,1,1.148,1.346v1.855h3.118V84.488h0a1.361,1.361,0,0,1,1.04-1.321,10.918,10.918,0,0,0,3.075-1.26,1.362,1.362,0,0,1,1.75.15l1.312,1.312Zm-5.1-14.586a5.15,5.15,0,1,1-3.64-1.507,5.135,5.135,0,0,1,3.64,1.507Zm-3.64-4.234a7.875,7.875,0,1,1-5.568,2.306,7.85,7.85,0,0,1,5.568-2.306ZM48.815,52.243H42.532v6.283h6.283V52.243Zm-6.723-2.728h7.163a2.274,2.274,0,0,1,1.611.671l0,0,0,0a2.284,2.284,0,0,1,.67,1.617v7.163a2.289,2.289,0,0,1-2.287,2.287H42.092a2.281,2.281,0,0,1-1.617-.671,1.233,1.233,0,0,1-.1-.115,2.27,2.27,0,0,1-.568-1.5V51.8a2.28,2.28,0,0,1,.67-1.612l.006-.005a2.274,2.274,0,0,1,1.611-.671Zm13.392-5.108a1.175,1.175,0,0,1,1.167,1.166V65.195a1.173,1.173,0,0,1-1.167,1.166H35.863A1.173,1.173,0,0,1,34.7,65.195V45.573a1.175,1.175,0,0,1,1.167-1.166H55.484ZM38.463,41.68h2.989V39.25a1.364,1.364,0,0,1,2.727,0v2.43h2.989V39.25a1.364,1.364,0,0,1,2.727,0v2.43h2.988V39.25a1.364,1.364,0,0,1,2.728,0v2.432a3.9,3.9,0,0,1,3.765,3.765h2.431a1.364,1.364,0,1,1,0,2.727H59.378v2.989h2.429a1.364,1.364,0,1,1,0,2.727H59.378v2.988h2.429a1.364,1.364,0,1,1,0,2.728H59.378v2.988h2.429a1.364,1.364,0,1,1,0,2.727H59.376a3.9,3.9,0,0,1-3.765,3.766v2.431a1.364,1.364,0,0,1-2.728,0V69.089H49.9v2.429a1.364,1.364,0,1,1-2.727,0V69.089H44.179v2.429a1.364,1.364,0,1,1-2.727,0V69.089H38.463v2.429a1.364,1.364,0,1,1-2.727,0V69.087a3.9,3.9,0,0,1-3.765-3.766H29.539a1.364,1.364,0,0,1,0-2.727h2.43V59.606h-2.43a1.364,1.364,0,0,1,0-2.728h2.43V53.89h-2.43a1.364,1.364,0,0,1,0-2.727h2.43V48.174h-2.43a1.364,1.364,0,0,1,0-2.727h2.432a3.9,3.9,0,0,1,3.765-3.765V39.25a1.364,1.364,0,0,1,2.727,0v2.43ZM65.32,82.933H9.589A4.6,4.6,0,0,1,5,78.344V15.519A4.6,4.6,0,0,1,9.589,10.93H81.758a4.6,4.6,0,0,1,4.589,4.589V58.7a2.3,2.3,0,0,1,.746-.125v.005a2.3,2.3,0,0,1,1.629.671l0,0,0,0,2.794,2.794a2.312,2.312,0,0,1,0,3.267l-.881.881q.239.468.44.954c.01.024.019.049.028.073q.183.448.335.913H92.69a2.3,2.3,0,0,1,1.627.678l0,0,0,0A2.3,2.3,0,0,1,95,70.447V74.4a2.3,2.3,0,0,1-.678,1.633,1.382,1.382,0,0,1-.114.1,2.29,2.29,0,0,1-1.518.576H91.444q-.165.5-.364.986c-.01.024-.021.047-.032.07q-.19.451-.408.882l.881.882a2.312,2.312,0,0,1,0,3.267l-2.794,2.8a1.338,1.338,0,0,1-.113.1,2.3,2.3,0,0,1-3.149-.1l0,0,0,0-.882-.882q-.467.237-.958.44t-.981.363V86.76a2.305,2.305,0,0,1-.677,1.628l0,0,0,0a2.307,2.307,0,0,1-1.633.677H76.377a2.313,2.313,0,0,1-2.311-2.31V85.513q-.5-.164-.98-.363t-.958-.44l-.882.882a2.314,2.314,0,0,1-3.267,0L65.32,82.933Zm18.3-54.378V59.7q-.481-.2-.981-.363V58.087a2.291,2.291,0,0,0-.576-1.519,1.21,1.21,0,0,0-.1-.114,2.306,2.306,0,0,0-1.633-.678H76.377a2.315,2.315,0,0,0-2.311,2.311v1.246c-.333.109-.66.231-.981.363s-.646.283-.958.44l-.881-.881a2.305,2.305,0,0,0-3.154-.1,1.338,1.338,0,0,0-.113.1l-2.8,2.794,0,0,0,0a2.3,2.3,0,0,0-.1,3.149,1.338,1.338,0,0,0,.1.113l.882.882c-.145.287-.282.582-.408.882-.012.024-.022.047-.032.071q-.2.481-.364.986H64.016a2.3,2.3,0,0,0-1.519.576,1.345,1.345,0,0,0-.114.1,2.3,2.3,0,0,0-.677,1.632V74.4a2.3,2.3,0,0,0,.677,1.633l0,0a2.306,2.306,0,0,0,1.63.681h1.247q.163.5.363.98t.44.959l-.882.881,0,0,0,0a2.3,2.3,0,0,0-.466.671H9.589a1.871,1.871,0,0,1-1.862-1.862V28.555ZM7.727,25.828H83.62V15.519a1.871,1.871,0,0,0-1.862-1.862H9.589a1.871,1.871,0,0,0-1.862,1.862V25.828Zm27.507-4.912H74.551a1.364,1.364,0,1,0,0-2.728H35.234a1.364,1.364,0,0,0,0,2.728Zm-21.261,0h0a1.364,1.364,0,0,0,0-2.728h0a1.364,1.364,0,0,0,0,2.728Zm6.835,0h0a1.364,1.364,0,0,0,0-2.728h0a1.364,1.364,0,0,0,0,2.728Zm6.835,0h0a1.364,1.364,0,0,0,0-2.728h0a1.364,1.364,0,0,0,0,2.728Z"/></svg>