<svg xmlns="http://www.w3.org/2000/svg" xmlns:xlink="http://www.w3.org/1999/xlink" version="1.1" x="0px" y="0px" viewBox="0 0 32 40" enable-background="new 0 0 32 32" xml:space="preserve"><g><path d="M21,30H3c-0.5527344,0-1-0.4472656-1-1V18c0-0.5527344,0.4472656-1,1-1h18c0.5527344,0,1,0.4472656,1,1v11   C22,29.5527344,21.5527344,30,21,30z M4,28h16v-9H4V28z"/><path d="M25,23h-2v-2h1V11H8v5H6v-6c0-0.5527344,0.4472656-1,1-1h18c0.5527344,0,1,0.4472656,1,1v12   C26,22.5527344,25.5527344,23,25,23z"/><path d="M29,15h-2v-2h1V4H12v4h-2V3c0-0.5527344,0.4472656-1,1-1h18c0.5527344,0,1,0.4472656,1,1v11   C30,14.5527344,29.5527344,15,29,15z"/></g></svg>