<svg xmlns="http://www.w3.org/2000/svg" xmlns:xlink="http://www.w3.org/1999/xlink" version="1.1" x="0px" y="0px" viewBox="0 0 49 61.25" enable-background="new 0 0 49 49" xml:space="preserve"><path fill="#000000" d="M47.5,0.5H14.9c-0.6,0-1,0.4-1,1v5.7H8.2c-0.6,0-1,0.4-1,1v5.7H1.5c-0.6,0-1,0.4-1,1v32.6c0,0.6,0.4,1,1,1  h32.6c0.6,0,1-0.4,1-1v-5.7h5.7c0.6,0,1-0.4,1-1v-5.7h5.7c0.6,0,1-0.4,1-1V1.5C48.5,0.9,48.1,0.5,47.5,0.5z M33.1,46.5H2.5V15.9h4.7  v24.9c0,0.6,0.4,1,1,1h24.9V46.5z M39.8,39.8H9.2V9.2h4.7v24.9c0,0.4,0.4,1,1,1h24.9V39.8z M46.5,33.1l-30.6,0V2.5h30.6V33.1z"/></svg>